# This file uses centimeters as units for non-parametric coordinates.

mtllib Gun.mtl
g default
v -0.150000 0.000000 0.150000
v 0.150000 0.000000 0.150000
v -0.150000 0.300000 0.150000
v 0.150000 0.300000 0.150000
v -0.150000 0.600000 0.150000
v 0.150000 0.600000 0.149999
v -0.150000 0.900000 0.150000
v 0.150000 0.900000 0.149999
v -0.150000 0.600000 0.150000
v 0.150000 0.600000 0.150000
v 0.150000 0.900000 0.150000
v -0.150000 0.900000 0.150000
v -0.150000 0.600000 0.150000
v 0.150000 0.600000 0.150000
v 0.150000 0.900000 0.150000
v -0.150000 0.900000 0.150000
v -0.101992 0.917572 1.273315
v -0.131254 0.951216 1.273315
v -0.150000 0.900000 1.238979
v -0.050157 0.999844 0.310948
v -0.092580 0.987856 1.273315
v -0.062144 0.957420 1.273315
v -0.062144 1.142580 1.273315
v -0.093754 1.111284 1.273315
v -0.050156 1.100157 0.310948
v -0.132428 1.151992 1.273315
v -0.098784 1.181254 1.273315
v 0.132428 0.948009 1.273315
v 0.098784 0.918746 1.273315
v 0.150000 0.900000 1.238979
v 0.050156 0.999844 0.310948
v 0.062144 0.957420 1.273315
v 0.092580 0.987856 1.273315
v 0.101992 1.182428 1.273315
v 0.131254 1.148784 1.273315
v 0.050156 1.100157 0.310948
v 0.092580 1.112144 1.273315
v 0.062144 1.142580 1.273315
v -0.127283 1.200000 0.150000
v -0.150000 1.177283 0.150000
v -0.150000 1.177283 0.057526
v -0.127283 1.200000 0.053007
v 0.150000 1.177283 0.150000
v 0.127283 1.200000 0.150000
v 0.150000 1.177283 0.057526
v 0.127283 1.200000 0.053007
v -0.127283 0.900000 -0.150000
v -0.150000 0.900000 -0.127283
v -0.127283 0.600000 -0.150000
v -0.150000 0.600000 -0.127283
v 0.150000 0.900000 -0.127283
v 0.127282 0.900000 -0.150001
v 0.127282 0.600000 -0.150001
v 0.150000 0.600000 -0.127283
v -0.127283 0.300000 -0.150000
v -0.150000 0.300000 -0.127283
v 0.127283 0.300000 -0.150000
v 0.150000 0.300000 -0.127283
v -0.150000 0.000000 -0.127283
v -0.127283 0.000000 -0.150000
v 0.150000 0.000000 -0.127283
v 0.127283 0.000000 -0.150000
v 0.127283 1.200000 1.238979
v 0.125998 1.191215 1.256145
v 0.141044 1.175532 1.255383
v 0.150000 1.177283 1.238979
v -0.150000 1.177283 1.238979
v -0.141215 1.175998 1.256145
v -0.125532 1.191044 1.255383
v -0.127283 1.200000 1.238979
v -0.150000 0.992474 -0.127283
v -0.127283 0.996993 -0.150000
v -0.150000 1.074639 -0.093249
v -0.127283 1.087508 -0.112508
v 0.150000 1.074639 -0.093249
v 0.127283 1.087508 -0.112508
v 0.150000 1.143249 -0.024639
v 0.127283 1.162508 -0.037508
v 0.150000 0.992474 -0.127283
v 0.127282 0.996993 -0.150000
v -0.150000 1.143249 -0.024639
v -0.127283 1.162508 -0.037508
v -0.075000 0.900000 0.375007
v -0.055809 0.900000 0.450000
v 0.075000 0.900000 0.375007
v 0.055809 0.900000 0.450000
v -0.075000 0.674992 0.150000
v -0.055809 0.600000 0.150000
v 0.055809 0.600000 0.150000
v 0.075000 0.674992 0.150000
v -0.055809 0.618746 0.393754
v -0.061388 0.621803 0.375007
v -0.055809 0.600000 0.348496
v 0.055809 0.600000 0.348496
v 0.061388 0.621803 0.375007
v 0.055809 0.618746 0.393754
v -0.055809 0.701504 0.450000
v -0.061388 0.674992 0.428197
v -0.055809 0.656246 0.431254
v 0.055809 0.701504 0.450000
v 0.055809 0.656246 0.431254
v 0.061388 0.674992 0.428197
v 0.025000 0.900000 0.214997
v 0.018603 0.900000 0.190000
v -0.025000 0.900000 0.214997
v -0.018603 0.900000 0.190000
v 0.018603 0.709131 0.208749
v 0.020463 0.711373 0.214997
v 0.018603 0.701184 0.223835
v -0.018603 0.701184 0.223835
v -0.020463 0.711373 0.214997
v -0.018603 0.709131 0.208749
v 0.018603 0.754436 0.190000
v 0.020463 0.734995 0.197268
v 0.018603 0.723807 0.196249
v -0.018603 0.754436 0.190000
v -0.018603 0.723807 0.196249
v -0.020463 0.734995 0.197268
v 0.025000 0.734995 0.226355
v 0.023241 0.725837 0.214997
v 0.022732 0.734995 0.206133
v 0.025000 0.746352 0.214997
v -0.025000 0.746352 0.214997
v -0.022732 0.734995 0.206133
v -0.023241 0.725837 0.214997
v -0.025000 0.734995 0.226355
v 0.021801 0.718088 0.290000
v -0.021801 0.718088 0.290000
v 0.023401 0.726542 0.290000
v 0.025000 0.734995 0.281547
v -0.025000 0.734995 0.281547
v -0.023401 0.726542 0.290000
v 0.018603 0.701184 0.261145
v 0.020202 0.709635 0.281547
v -0.020202 0.709635 0.281547
v -0.018603 0.701184 0.261145
v -0.075000 0.674992 0.343445
v -0.068195 0.648401 0.375007
v -0.068195 0.674992 0.401599
v -0.075000 0.706555 0.375007
v 0.075000 0.706555 0.375007
v 0.068195 0.674992 0.401599
v 0.068195 0.648401 0.375007
v 0.075000 0.674992 0.343445
vt 0.375000 0.000000
vt 0.375000 0.125000
vt 0.625000 0.125000
vt 0.625000 0.187500
vt 0.375000 0.187500
vt 0.375000 0.125000
vt 0.625000 0.125000
vt 0.625000 0.187500
vt 0.375000 0.187500
vt 0.415007 0.191161
vt 0.448214 0.199463
vt 0.458203 0.208301
vt 0.458203 0.229199
vt 0.448214 0.238037
vt 0.389644 0.239998
vt 0.610356 0.197502
vt 0.551786 0.199463
vt 0.577150 0.205803
vt 0.541797 0.229199
vt 0.584993 0.246339
vt 0.551786 0.238037
vt 0.577150 0.231697
vt 0.422850 0.205803
vt 0.421872 0.231518
vt 0.582320 0.191405
vt 0.541797 0.208301
vt 0.625000 0.768931
vt 0.625000 1.000000
vt 0.375000 1.000000
vt 0.609378 0.239330
vt 0.390622 0.198170
vt 0.417680 0.246095
vt 0.375000 0.245267
vt 0.393931 0.250000
vt 0.375000 0.250000
vt 0.375000 0.327062
vt 0.294173 0.250000
vt 0.606069 0.250000
vt 0.625000 0.245267
vt 0.625000 0.327062
vt 0.705828 0.250000
vt 0.702062 0.245267
vt 0.781257 0.242189
vt 0.375002 0.562500
vt 0.375000 0.543235
vt 0.375000 0.625000
vt 0.375001 0.687500
vt 0.625000 0.543234
vt 0.625000 0.562500
vt 0.625000 0.625000
vt 0.375000 0.768931
vt 0.625000 0.687500
vt 0.606069 0.750000
vt 0.125000 0.207707
vt 0.143931 0.206765
vt 0.156244 0.226564
vt 0.172293 0.223883
vt 0.218744 0.242189
vt 0.843756 0.226564
vt 0.770533 0.238177
vt 0.827707 0.223883
vt 0.874999 0.207707
vt 0.393931 0.250000
vt 0.606069 0.330827
vt 0.393931 0.542293
vt 0.606069 0.562500
vt 0.393931 0.562500
vt 0.606069 0.625000
vt 0.393931 0.625000
vt 0.606069 0.687500
vt 0.393931 0.687500
vt 0.393931 0.750000
vt 0.625000 0.000000
vt 0.856069 0.000000
vt 0.856069 0.062500
vt 0.625000 0.062500
vt 0.856069 0.125000
vt 0.625000 0.125000
vt 0.856069 0.187500
vt 0.856069 0.206765
vt 0.625000 0.245267
vt 0.143931 0.000000
vt 0.375000 0.062500
vt 0.143931 0.062500
vt 0.375000 0.125000
vt 0.143931 0.125000
vt 0.143931 0.187500
vt 0.375000 0.187500
vt 0.297938 0.245267
vt 0.229467 0.238177
vt 0.625000 0.187500
vt 0.625000 0.187500
vt 0.606069 0.250000
vt 0.375000 0.245267
vt 0.375000 0.187500
vt 0.606069 0.492192
vt 0.393931 0.414067
vt 0.393931 0.492192
vt 0.606069 0.542293
vt 0.393931 0.330827
vt 0.606069 0.414067
vt 0.604998 0.248170
vt 0.617537 0.244903
vt 0.382321 0.245000
vt 0.395390 0.248134
vt 0.562506 0.046872
vt 0.437494 0.046872
vt 0.437494 0.015622
vt 0.562506 0.015622
vt 0.437494 0.084586
vt 0.562506 0.915414
vt 0.562506 0.084586
vt 0.562506 0.250000
vt 0.437494 0.915414
vt 0.437494 0.750000
vt 0.419324 0.937506
vt 0.437494 0.000000
vt 0.562506 0.000000
vt 0.426067 0.937506
vt 0.562506 0.046872
vt 0.437494 0.046872
vt 0.437494 0.015622
vt 0.562506 0.015622
vt 0.437494 0.084586
vt 0.562506 0.084586
vt 0.562506 0.250000
vt 0.437494 0.250000
vt 0.562506 0.915414
vt 0.437494 0.915414
vt 0.437494 0.822138
vt 0.562506 0.822138
vt 0.401155 0.018171
vt 0.401155 0.062494
vt 0.372451 0.281267
vt 0.366008 0.313194
vt 0.419324 0.937506
vt 0.373052 0.669622
vt 0.348485 0.528394
vt 0.371478 0.666375
vt 0.390623 0.703130
vt 0.406250 0.718756
vt 0.421873 0.755511
vt 0.598845 0.062494
vt 0.627549 0.281267
vt 0.658398 0.482792
vt 0.687494 0.250000
vt 0.437494 0.000000
vt 0.562506 0.000000
vt 0.426067 0.937506
vt 0.598845 0.018171
vt 0.628522 0.666375
vt 0.651515 0.528394
vt 0.341602 0.482792
vt 0.312506 0.250000
vt 0.593750 0.718756
vt 0.609377 0.703130
vt 0.633992 0.313194
vt 0.626948 0.669622
vt 0.580676 0.937505
vt 0.578127 0.755511
vt 0.642168 0.581504
vt 0.381535 0.718731
vt 0.375000 0.687506
vt 0.401155 0.018169
vt 0.401155 0.062494
vt 0.437494 0.250000
vt 0.627549 0.281269
vt 0.687494 0.250000
vt 0.627549 0.259109
vt 0.598845 0.062494
vt 0.598845 0.018169
vt 0.580676 0.937506
vt 0.562506 0.750000
vt 0.625000 0.687506
vt 0.312506 0.250000
vt 0.348136 0.526302
vt 0.660630 0.464932
vt 0.372451 0.259109
vt 0.372451 0.281269
vt 0.339370 0.464932
vt 0.654170 0.512023
vt 0.618465 0.718731
vt 0.651864 0.526302
vn 0.000000 0.000000 1.000000
vn 0.000000 0.000000 1.000000
vn 0.000001 0.000001 1.000000
vn 0.000001 0.000001 1.000000
vn 0.000001 0.000001 1.000000
vn 0.000001 0.000001 1.000000
vn 0.000000 0.000000 1.000000
vn 0.000000 0.000000 1.000000
vn 0.000000 0.000000 1.000000
vn 0.000000 0.000000 1.000000
vn 0.000000 -0.990871 -0.134812
vn 0.000000 -0.990871 -0.134812
vn 0.000000 -0.990871 -0.134812
vn 0.000000 -0.990871 -0.134812
vn 1.000000 0.000000 -0.000001
vn 1.000000 -0.000001 -0.000000
vn 0.928924 0.000000 -0.370270
vn 0.928924 0.000000 -0.370270
vn 0.000000 0.988530 0.151026
vn 0.000000 0.000000 0.000000
vn 0.000000 0.000000 0.000000
vn 0.000000 0.988530 0.151026
vn 0.000000 0.000000 0.000000
vn 0.000000 0.000000 0.000000
vn 0.000000 0.000000 0.000000
vn 0.000000 0.000000 0.000000
vn 0.000000 0.000000 0.000000
vn 0.000000 0.000000 0.000000
vn 0.000000 0.000000 0.000000
vn 0.000000 0.000000 0.000000
vn 0.000000 0.000000 0.000000
vn 0.000000 0.000000 0.000000
vn 0.000000 0.000000 0.000000
vn 0.000000 0.000000 0.000000
vn 0.000000 0.000000 0.000000
vn 0.000000 0.000000 0.000000
vn 0.000000 0.000000 0.000000
vn 0.000000 0.000000 0.000000
vn 0.000000 0.000000 0.000000
vn 0.000000 0.000000 0.000000
vn 0.000000 0.000000 0.000000
vn 0.000000 0.000000 0.000000
vn 0.001863 -0.794845 0.606810
vn 0.000026 -0.999982 0.005931
vn 0.000025 -0.999984 0.005718
vn 0.020325 -0.713689 0.700167
vn -0.711455 -0.020716 0.702426
vn -0.145287 -0.126365 0.981287
vn 0.116660 0.983039 0.141510
vn 0.982656 0.121522 0.140069
vn -0.999982 -0.000027 0.006047
vn -0.719953 0.017258 0.693808
vn -0.883800 -0.002119 0.467860
vn -0.999906 -0.000062 0.013739
vn 0.698257 0.704577 0.126524
vn -0.116668 0.983116 0.140968
vn -0.701443 0.701444 0.126309
vn 0.701644 -0.701087 0.127172
vn 0.983003 -0.116481 0.141903
vn 0.119394 -0.982820 0.140751
vn -0.701444 -0.701443 0.126309
vn -0.116660 -0.983039 0.141510
vn -0.089606 0.103021 0.990635
vn 0.792996 0.001900 0.609224
vn 0.999980 0.000028 0.006269
vn 0.999909 0.000061 0.013494
vn 0.884083 0.002118 0.467326
vn 0.712661 0.016295 0.701319
vn 0.126366 -0.145287 0.981287
vn -0.983039 0.116659 0.141510
vn -0.983116 -0.116668 0.140968
vn 0.119044 0.103541 0.987476
vn -0.001939 0.790667 0.612244
vn -0.001930 0.786766 0.617248
vn 0.000000 -1.000000 0.000000
vn 0.000000 -1.000000 0.000000
vn -0.440472 -0.383109 0.811919
vn -0.383108 0.440468 0.811922
vn -0.383108 0.440468 0.811922
vn 0.383108 -0.440467 0.811922
vn 0.440471 0.383108 0.811920
vn 0.440471 0.383108 0.811920
vn 0.000000 -1.000000 0.000000
vn 0.000000 -1.000000 0.000000
vn 0.000000 -1.000000 0.000000
vn 0.000000 -1.000000 0.000000
vn 0.000000 -1.000000 0.000000
vn 0.000000 -1.000000 0.000000
vn -0.000067 0.999897 0.014345
vn -0.002168 0.883938 0.467600
vn -0.002168 0.883938 0.467600
vn -0.000068 0.999894 0.014598
vn -0.707106 0.707108 -0.000000
vn -0.707106 0.707108 -0.000000
vn -0.706990 0.707209 0.004603
vn -0.706990 0.707209 0.004614
vn -0.713931 0.686946 -0.135677
vn -0.713931 0.686946 -0.135677
vn -0.713920 0.578986 -0.393819
vn -0.713920 0.578986 -0.393818
vn 0.707105 0.707108 -0.000000
vn 0.707105 0.707108 -0.000000
vn 0.707206 0.706992 0.004603
vn 0.707206 0.706992 0.004614
vn 0.713931 0.686946 -0.135676
vn 0.713931 0.686946 -0.135676
vn 0.713920 0.578986 -0.393818
vn 0.713920 0.578986 -0.393818
vn -0.707108 0.000000 -0.707106
vn -0.707108 0.000000 -0.707106
vn -0.713933 0.135676 -0.686944
vn -0.713933 0.135676 -0.686944
vn -0.707108 -0.000000 -0.707106
vn -0.707107 -0.000000 -0.707106
vn -0.707107 -0.000000 -0.707107
vn -0.707107 -0.000000 -0.707107
vn 0.707106 0.000000 -0.707108
vn 0.707106 0.000000 -0.707108
vn 0.713932 0.135677 -0.686945
vn 0.713932 0.135677 -0.686945
vn 0.707106 -0.000000 -0.707107
vn 0.707106 -0.000000 -0.707107
vn 0.707107 -0.000000 -0.707107
vn 0.707107 -0.000000 -0.707107
vn -0.707107 0.000000 -0.707107
vn -0.707107 0.000000 -0.707107
vn 0.707107 0.000000 -0.707107
vn 0.707107 0.000000 -0.707107
vn -0.713921 0.393819 -0.578986
vn -0.713921 0.393818 -0.578986
vn 0.713920 0.393819 -0.578986
vn 0.713920 0.393819 -0.578986
vn 0.000000 1.000000 -0.000000
vn 0.000000 1.000000 -0.000000
vn -0.000000 0.980590 -0.196071
vn -0.000000 0.980590 -0.196071
vn -0.000002 0.196072 -0.980590
vn -0.000002 0.196072 -0.980590
vn -0.000002 0.000000 -1.000000
vn -0.000002 0.000000 -1.000000
vn -0.000002 -0.000001 -1.000000
vn -0.000002 -0.000001 -1.000000
vn -0.000001 -0.000001 -1.000000
vn -0.000001 -0.000001 -1.000000
vn 0.000000 0.000000 -1.000000
vn 0.000000 0.000000 -1.000000
vn 1.000000 0.000000 0.000000
vn 1.000000 0.000000 0.000000
vn 1.000000 0.000000 0.000000
vn 1.000000 0.000000 0.000000
vn 1.000000 0.000000 0.000000
vn 1.000000 -0.000000 -0.000000
vn 1.000000 -0.000001 -0.000000
vn 1.000000 -0.000001 -0.000000
vn 1.000000 -0.000001 -0.000000
vn 1.000000 -0.000001 -0.000000
vn 1.000000 -0.000001 -0.000000
vn -1.000000 0.000000 0.000000
vn -1.000000 0.000000 0.000000
vn -1.000000 0.000000 0.000000
vn -1.000000 0.000000 0.000000
vn -1.000000 0.000000 0.000000
vn -1.000000 0.000000 0.000000
vn -1.000000 0.000000 -0.000000
vn -1.000000 -0.000000 0.000000
vn -1.000000 0.000000 -0.000000
vn -1.000000 -0.000000 0.000000
vn -1.000000 -0.000000 0.000000
vn -1.000000 -0.000000 0.000000
vn -1.000000 -0.000000 0.000000
vn -0.000001 0.562114 -0.827060
vn -0.000001 0.562114 -0.827060
vn -0.000001 0.827061 -0.562113
vn -0.000001 0.827061 -0.562113
vn 0.657185 0.638331 0.400801
vn 0.657185 0.638331 0.400801
vn -0.638333 0.657181 0.400804
vn -0.638333 0.657181 0.400804
vn 0.000000 -0.562114 0.827060
vn 0.000000 -0.562114 0.827060
vn 0.000000 -0.827061 0.562112
vn 0.000000 -0.827061 0.562112
vn 0.000000 -0.076680 0.997056
vn 0.000000 -0.076680 0.997056
vn 0.000000 0.000000 1.000000
vn 0.000000 0.000000 1.000000
vn 0.000000 -0.997056 0.076680
vn 0.000000 -0.997056 0.076680
vn 0.000000 -1.000000 0.000000
vn 0.000000 -1.000000 0.000000
vn -0.967686 -0.250927 0.024900
vn -0.938765 -0.248260 0.238930
vn -0.938765 -0.238931 0.248259
vn -0.967686 -0.024900 0.250927
vn -0.970231 -0.033713 0.239822
vn -0.970231 -0.239822 0.033712
vn -0.968655 -0.248411 0.000430
vn -0.970679 -0.240283 0.006843
vn -0.968781 -0.247920 0.000000
vn -0.968781 -0.247920 0.000000
vn 0.968655 -0.000430 0.248411
vn 0.967686 -0.024900 0.250927
vn 0.970231 -0.033713 0.239822
vn 0.970679 -0.006843 0.240283
vn 0.968781 -0.000000 0.247920
vn 0.968781 -0.000000 0.247920
vn 0.968655 -0.248411 0.000430
vn 0.967686 -0.250927 0.024900
vn 0.938765 -0.248260 0.238930
vn -0.968655 -0.000430 0.248411
vn 0.938765 -0.238930 0.248259
vn 0.000000 1.000000 0.000000
vn 0.000000 1.000000 0.000000
vn 0.000000 1.000000 0.000000
vn 0.000000 1.000000 0.000000
vn 0.000000 0.000000 -1.000000
vn 0.000000 0.000000 -1.000000
vn 0.000000 0.000000 -1.000000
vn 0.000000 0.000000 -1.000000
vn 0.000000 -0.382389 -0.924001
vn 0.000000 -0.382389 -0.924001
vn 0.000000 -0.773234 -0.634121
vn 0.000000 -0.773234 -0.634121
vn 0.000000 -0.035443 -0.999372
vn 0.000000 -0.035443 -0.999372
vn 0.000000 0.000000 -1.000000
vn 0.000000 0.000000 -1.000000
vn 0.000000 -0.988692 -0.149963
vn 0.000000 -0.988692 -0.149963
vn 0.000000 -0.988234 0.152953
vn 0.000000 -0.988234 0.152953
vn 0.982067 -0.186543 -0.027334
vn 0.959065 -0.178752 -0.219639
vn 0.958583 -0.169471 -0.228905
vn 0.967948 -0.013489 -0.250788
vn 0.970232 -0.016340 -0.241625
vn 0.983194 -0.178931 -0.036235
vn 0.982469 -0.186424 -0.001077
vn 0.983509 -0.180748 -0.006337
vn 0.982555 -0.185970 -0.000511
vn 0.982555 -0.185970 -0.000511
vn 0.982555 -0.185970 -0.000511
vn 0.982555 -0.185970 -0.000511
vn 0.982555 -0.185970 -0.000511
vn -0.968722 -0.000091 -0.248148
vn -0.967948 -0.013489 -0.250788
vn -0.970232 -0.016340 -0.241625
vn -0.969761 -0.002460 -0.244046
vn -0.968781 0.000000 -0.247919
vn -0.968781 0.000000 -0.247919
vn -0.982469 -0.186424 -0.001077
vn -0.982067 -0.186543 -0.027334
vn -0.959065 -0.178752 -0.219639
vn 0.968722 -0.000091 -0.248148
vn -0.958583 -0.169471 -0.228905
vn 0.000000 1.000000 0.000000
vn 0.000000 1.000000 0.000000
vn 0.000000 1.000000 0.000000
vn 0.000000 1.000000 0.000000
vn 0.000000 0.000000 1.000000
vn 0.000000 0.000000 1.000000
vn 0.000000 0.000000 1.000000
vn 0.000000 0.000000 1.000000
vn 0.000000 0.000000 1.000000
vn 0.000000 0.000000 1.000000
vn 0.000000 0.000000 1.000000
vn 0.000000 0.000000 1.000000
vn 0.969761 -0.002460 -0.244046
vn 0.968781 0.000000 -0.247919
vn 0.968781 0.000000 -0.247919
vn -0.983194 -0.178931 -0.036235
vn -0.983509 -0.180748 -0.006337
vn -0.982555 -0.185970 -0.000511
vn -0.982555 -0.185970 -0.000511
vn -0.982555 -0.185970 -0.000511
vn -0.982555 -0.185970 -0.000511
vn -0.982555 -0.185970 -0.000511
vn 0.000000 0.707111 0.707102
vn 0.000000 0.707111 0.707102
vn 0.000000 0.707111 0.707102
vn 0.000000 0.707111 0.707102
vn 0.000000 -0.852933 0.522021
vn 0.000000 -0.852933 0.522021
vn 0.000000 -0.707106 0.707108
vn 0.000000 -0.707106 0.707108
vn 0.000000 0.707113 0.707100
vn 0.000000 0.707113 0.707100
vn 0.000000 0.707113 0.707100
vn 0.000000 0.707113 0.707100
vn -0.970679 -0.006843 0.240283
vn -0.968781 -0.000000 0.247920
vn -0.968781 -0.000000 0.247920
vn 0.970231 -0.239822 0.033712
vn 0.970679 -0.240283 0.006843
vn 0.968781 -0.247920 0.000000
vn 0.968781 -0.247920 0.000000
vn 0.000000 0.707107 -0.707107
vn 0.000000 0.707107 -0.707107
vn 0.000000 0.707107 -0.707107
vn 0.000000 0.707107 -0.707107
s 1
g pCube4
usemtl lambert2SG
f 1/1/1 2/73/2 4/76/3 3/83/4
f 3/83/4 4/76/3 6/78/5 5/85/6
s off
f 13/6/7 14/7/8 15/8/9 16/9/10
f 5/85/11 6/78/12 10/3/13 9/2/14
s 2
f 6/78/15 8/91/16 11/4/17 10/3/18
s off
f 8/91/19 7/88/20 12/5/21 11/4/22
f 7/88/23 5/85/24 9/2/25 12/5/26
f 9/2/27 10/3/28 14/7/29 13/6/30
f 10/3/31 11/4/32 15/8/33 14/7/34
f 11/4/35 12/5/36 16/9/37 15/8/38
f 12/5/39 9/2/40 13/6/41 16/9/42
s 2
f 17/10/43 19/95/44 30/92/45 29/25/46
f 18/31/47 17/10/48 22/11/49 21/23/50
f 19/95/51 18/31/47 26/15/52 68/104/53 67/33/54
f 20/12/55 22/11/49 32/17/56 31/26/57
f 21/23/50 20/12/55 25/13/58 24/24/59
f 23/14/60 25/13/58 36/19/61 38/21/62
f 24/24/59 23/14/60 27/32/63 26/15/52
f 28/16/64 30/92/65 66/39/66 65/103/67 35/30/68
f 29/25/46 28/16/69 33/18/70 32/17/56
f 31/26/57 33/18/70 37/22/71 36/19/61
f 35/30/68 34/20/72 38/21/62 37/22/71
f 18/31/47 21/23/50 24/24/59 26/15/52
f 22/11/49 17/10/43 29/25/46 32/17/56
f 33/18/70 28/16/64 35/30/68 37/22/71
f 38/21/62 34/20/73 27/32/74 23/14/60
f 20/12/55 31/26/57 36/19/61 25/13/58
f 7/88/75 8/91/76 30/92/45 19/95/44
f 17/10/48 18/31/47 19/95/77
f 20/12/55 21/23/50 22/11/49
f 23/14/60 24/24/59 25/13/58
f 26/15/52 27/32/63 69/105/78 68/104/79
f 28/16/69 29/25/46 30/92/80
f 31/26/57 32/17/56 33/18/70
f 34/20/72 35/30/68 65/103/81 64/102/82
f 36/19/61 37/22/71 38/21/62
s off
f 59/51/83 60/72/84 62/53/85 61/27/86 2/28/87 1/29/88
s 2
f 70/34/89 69/105/90 27/32/74 34/20/73 64/102/91 63/38/92
s 8
f 39/63/93 40/94/94 67/33/95 70/34/96
f 40/35/94 39/63/93 42/100/97 41/36/98
f 41/89/98 42/37/97 82/58/99 81/90/100
s 9
f 43/81/101 44/93/102 63/38/103 66/39/104
f 44/93/102 43/81/101 45/40/105 46/64/106
f 46/41/106 45/42/105 77/60/107 78/43/108
s 8
f 47/67/109 48/44/110 71/45/111 72/65/112
f 48/44/110 47/67/109 49/69/113 50/46/114
f 50/46/114 49/69/113 55/71/115 56/47/116
s 9
f 51/49/117 52/66/118 80/99/119 79/48/120
f 52/66/118 51/49/117 54/50/121 53/68/122
f 53/68/122 54/50/121 58/52/123 57/70/124
s 8
f 56/47/116 55/71/115 60/72/125 59/51/126
s 9
f 57/70/124 58/52/123 61/27/127 62/53/128
s 8
f 72/54/112 71/55/111 73/57/129 74/56/130
f 74/56/130 73/57/129 81/90/100 82/58/99
s 9
f 75/61/131 76/59/132 78/43/108 77/60/107
f 76/59/132 75/61/131 79/80/120 80/62/119
s 2
f 39/63/133 44/93/134 46/64/135 42/100/136
f 72/65/137 80/99/138 52/66/139 47/67/140
f 47/67/140 52/66/139 53/68/141 49/69/142
f 49/69/142 53/68/141 57/70/143 55/71/144
f 55/71/144 57/70/143 62/53/145 60/72/146
f 2/73/147 61/74/148 58/75/149 4/76/150
f 4/76/150 58/75/149 54/77/151 6/78/15
f 6/78/15 54/77/151 51/79/152 8/91/16
f 8/91/16 51/79/152 79/80/153 75/61/154 77/60/155 45/42/156 43/81/157
f 56/84/158 59/82/159 1/1/160 3/83/161
f 56/84/158 3/83/161 5/85/162 50/86/163
f 50/86/163 5/85/162 7/88/164 48/87/165
f 48/87/165 7/88/164 40/94/166 41/89/167 81/90/168 73/57/169 71/55/170
f 8/91/16 43/81/157 66/39/66 30/92/65
f 44/93/134 39/63/133 70/34/89 63/38/92
f 40/94/166 7/88/164 19/95/51 67/33/54
f 76/96/171 74/98/172 82/97/173 78/101/174
f 72/65/137 74/98/172 76/96/171 80/99/138
f 82/97/173 42/100/136 46/64/135 78/101/174
s 9
f 63/38/103 64/102/175 65/103/176 66/39/104
s 8
f 67/33/95 68/104/177 69/105/178 70/34/96
s 15
f 101/106/179 99/107/180 91/108/181 96/109/182
f 97/110/183 100/112/184 86/113/185 84/166/186
f 94/111/187 93/114/188 88/115/189 89/173/190
s 16
f 92/164/191 91/108/192 99/107/193 98/165/194 139/179/195 138/178/196
f 93/114/197 92/116/191 138/162/196 137/176/198 87/163/199 88/115/200
s 17
f 100/112/201 102/170/202 142/167/203 141/177/204 85/168/205 86/113/206
s 15
f 91/108/181 93/117/188 94/118/187 96/109/182
f 97/110/183 99/107/180 101/106/179 100/112/184
s 16
f 91/119/192 92/116/191 93/114/197
s 17
f 94/118/207 95/171/208 96/109/209
s 16
f 97/110/210 98/165/194 99/107/193
s 17
f 100/112/201 101/106/211 102/170/202
s off
f 87/163/212 137/176/213 144/183/214 90/174/215
f 141/177/216 140/180/217 83/175/218 85/168/219
s 19
f 117/120/220 115/121/221 107/122/222 112/123/223
f 113/124/224 116/125/225 106/126/226 104/127/227
f 110/128/228 109/129/229 133/130/230 136/131/231
s 20
f 108/132/232 107/122/233 115/121/234 114/133/235 121/134/236 120/135/237
f 109/129/238 108/136/232 120/137/237 119/138/239 130/139/240 129/140/241 127/141/242 134/142/243 133/130/244
s 21
f 116/125/245 118/143/246 124/144/247 123/145/248 105/146/249 106/126/250
s 19
f 107/122/222 109/147/229 110/148/228 112/123/223
f 113/124/224 115/121/221 117/120/220 116/125/225
s 20
f 107/149/233 108/136/232 109/129/238
s 21
f 110/148/251 111/150/252 112/123/253
s 20
f 113/124/254 114/133/235 115/121/234
s 21
f 116/125/245 117/120/255 118/143/246
s off
f 131/151/256 130/139/257 119/138/258 126/152/259
f 123/145/260 122/153/261 103/154/262 105/146/263
f 128/155/264 127/141/265 129/140/266 132/156/267
s 20
f 122/153/268 121/134/236 114/133/235 113/124/254 104/127/269 103/154/270
s 21
f 125/157/271 124/144/247 118/143/246 117/120/255 112/123/253 111/150/252
f 126/152/272 125/158/271 111/159/252 110/128/251 136/131/273 135/160/274 128/155/275 132/156/276 131/151/277
s off
f 119/138/278 122/153/279 123/145/280 126/152/281
s 20
f 119/138/239 120/135/237 121/134/236 122/153/268
s 21
f 123/145/248 124/161/247 125/158/271 126/152/272
s 19
f 135/160/282 134/142/283 127/141/284 128/155/285
s off
f 129/140/286 130/139/287 131/151/288 132/156/289
s 19
f 133/130/230 134/142/283 135/160/282 136/131/231
s 16
f 140/180/290 139/179/195 98/165/194 97/110/210 84/166/291 83/175/292
s 17
f 143/169/293 142/167/203 102/170/202 101/106/211 96/109/209 95/171/208
f 144/183/294 143/182/293 95/172/208 94/111/207 89/173/295 90/174/296
s off
f 137/176/297 140/180/298 141/177/299 144/183/300
s 16
f 137/176/198 138/178/196 139/179/195 140/180/290
s 17
f 141/177/204 142/181/203 143/182/293 144/183/294
